<?xml version="1.0" encoding="utf-8"?><!-- Uploaded to: SVG Repo, www.svgrepo.com, Generator: SVG Repo Mixer Tools -->
<svg width="800px" height="800px" viewBox="0 0 24 24" fill="none" xmlns="http://www.w3.org/2000/svg">
<path d="M 4 18 L 9 12 M 20 18 L 15 12 M 3 8 L 10.2 12.8 C 10.9 13.2 11.2 13.4 11.5 13.5 C 11.8 13.6 12.2 13.6 12.5 13.5 C 12.8 13.4 13.1 13.2 13.8 12.8 L 21 8 M 6.2 19 H 17.8 C 18.9 19 19.5 19 19.9 18.8 C 20.3 18.6 20.6 18.3 20.8 17.9 C 21 17.5 21 16.9 21 15.8 V 8.2 C 21 7 21 6.5 20.8 6.1 C 20.6 5.7 20.3 5.4 19.9 5.2 C 19.5 5 18.9 5 17.8 5 H 6.2 C 5.1 5 4.5 5 4.1 5.2 C 3.7 5.4 3.4 5.7 3.2 6.1 C 3 6.5 3 7 3 8.2 V 15.8 C 3 16.9 3 17.5 3.2 17.9 C 3.4 18.3 3.7 18.6 4.1 18.8 C 4.5 19 5.1 19 6.2 19 Z" stroke="#fff" stroke-width="1.5" stroke-linecap="round" stroke-linejoin="round"/>
</svg>