<svg id="visual" viewBox="0 0 900 600" width="900" height="600" xmlns="http://www.w3.org/2000/svg" xmlns:xlink="http://www.w3.org/1999/xlink" version="1.1"><path d="M0 225L18.8 213.8C37.7 202.7 75.3 180.3 112.8 172.7C150.3 165 187.7 172 225.2 170.3C262.7 168.7 300.3 158.3 337.8 160.3C375.3 162.3 412.7 176.7 450.2 190C487.7 203.3 525.3 215.7 562.8 209.7C600.3 203.7 637.7 179.3 675.2 171.3C712.7 163.3 750.3 171.7 787.8 171.5C825.3 171.3 862.7 162.7 881.3 158.3L900 154L900 601L881.3 601C862.7 601 825.3 601 787.8 601C750.3 601 712.7 601 675.2 601C637.7 601 600.3 601 562.8 601C525.3 601 487.7 601 450.2 601C412.7 601 375.3 601 337.8 601C300.3 601 262.7 601 225.2 601C187.7 601 150.3 601 112.8 601C75.3 601 37.7 601 18.8 601L0 601Z" fill="#ffffff"></path><path d="M0 224L18.8 225.8C37.7 227.7 75.3 231.3 112.8 239.2C150.3 247 187.7 259 225.2 261.3C262.7 263.7 300.3 256.3 337.8 252.2C375.3 248 412.7 247 450.2 252.7C487.7 258.3 525.3 270.7 562.8 265.5C600.3 260.3 637.7 237.7 675.2 237.7C712.7 237.7 750.3 260.3 787.8 259.8C825.3 259.3 862.7 235.7 881.3 223.8L900 212L900 601L881.3 601C862.7 601 825.3 601 787.8 601C750.3 601 712.7 601 675.2 601C637.7 601 600.3 601 562.8 601C525.3 601 487.7 601 450.2 601C412.7 601 375.3 601 337.8 601C300.3 601 262.7 601 225.2 601C187.7 601 150.3 601 112.8 601C75.3 601 37.7 601 18.8 601L0 601Z" fill="#ffd8d2"></path><path d="M0 302L18.8 309.2C37.7 316.3 75.3 330.7 112.8 341C150.3 351.3 187.7 357.7 225.2 354.2C262.7 350.7 300.3 337.3 337.8 327.8C375.3 318.3 412.7 312.7 450.2 309.8C487.7 307 525.3 307 562.8 315.5C600.3 324 637.7 341 675.2 346.5C712.7 352 750.3 346 787.8 332.5C825.3 319 862.7 298 881.3 287.5L900 277L900 601L881.3 601C862.7 601 825.3 601 787.8 601C750.3 601 712.7 601 675.2 601C637.7 601 600.3 601 562.8 601C525.3 601 487.7 601 450.2 601C412.7 601 375.3 601 337.8 601C300.3 601 262.7 601 225.2 601C187.7 601 150.3 601 112.8 601C75.3 601 37.7 601 18.8 601L0 601Z" fill="#fcb2a6"></path><path d="M0 398L18.8 391.2C37.7 384.3 75.3 370.7 112.8 366.5C150.3 362.3 187.7 367.7 225.2 366.8C262.7 366 300.3 359 337.8 358.2C375.3 357.3 412.7 362.7 450.2 372C487.7 381.3 525.3 394.7 562.8 401.3C600.3 408 637.7 408 675.2 402.7C712.7 397.3 750.3 386.7 787.8 377.8C825.3 369 862.7 362 881.3 358.5L900 355L900 601L881.3 601C862.7 601 825.3 601 787.8 601C750.3 601 712.7 601 675.2 601C637.7 601 600.3 601 562.8 601C525.3 601 487.7 601 450.2 601C412.7 601 375.3 601 337.8 601C300.3 601 262.7 601 225.2 601C187.7 601 150.3 601 112.8 601C75.3 601 37.7 601 18.8 601L0 601Z" fill="#f38a7c"></path><path d="M0 471L18.8 472.5C37.7 474 75.3 477 112.8 469.8C150.3 462.7 187.7 445.3 225.2 441.8C262.7 438.3 300.3 448.7 337.8 451.3C375.3 454 412.7 449 450.2 449.3C487.7 449.7 525.3 455.3 562.8 460.3C600.3 465.3 637.7 469.7 675.2 472C712.7 474.3 750.3 474.7 787.8 472.2C825.3 469.7 862.7 464.3 881.3 461.7L900 459L900 601L881.3 601C862.7 601 825.3 601 787.8 601C750.3 601 712.7 601 675.2 601C637.7 601 600.3 601 562.8 601C525.3 601 487.7 601 450.2 601C412.7 601 375.3 601 337.8 601C300.3 601 262.7 601 225.2 601C187.7 601 150.3 601 112.8 601C75.3 601 37.7 601 18.8 601L0 601Z" fill="#e76154"></path><path d="M0 521L18.8 518.7C37.7 516.3 75.3 511.7 112.8 513.7C150.3 515.7 187.7 524.3 225.2 528C262.7 531.7 300.3 530.3 337.8 527C375.3 523.7 412.7 518.3 450.2 512.5C487.7 506.7 525.3 500.3 562.8 501.2C600.3 502 637.7 510 675.2 515.2C712.7 520.3 750.3 522.7 787.8 524C825.3 525.3 862.7 525.7 881.3 525.8L900 526L900 601L881.3 601C862.7 601 825.3 601 787.8 601C750.3 601 712.7 601 675.2 601C637.7 601 600.3 601 562.8 601C525.3 601 487.7 601 450.2 601C412.7 601 375.3 601 337.8 601C300.3 601 262.7 601 225.2 601C187.7 601 150.3 601 112.8 601C75.3 601 37.7 601 18.8 601L0 601Z" fill="#d72e2e"></path></svg>