<svg id="visual" viewBox="0 0 900 450" width="900" height="450" xmlns="http://www.w3.org/2000/svg" 
    xmlns:xlink="http://www.w3.org/1999/xlink" version="1.1">
    <path d="M0 76L21.5 75C43 74 86 72 128.8 69.5C171.7 67 214.3 64 257.2 67.5C300 
    71 343 81 385.8 86.2C428.7 91.3 471.3 91.7 514.2 98C557 104.3 600 116.7 642.8 
    115.2C685.7 113.7 728.3 98.3 771.2 90.5C814 82.7 857 82.3 878.5 82.2L900 82L900 
    451L878.5 451C857 451 814 451 771.2 451C728.3 451 685.7 451 642.8 451C600 451 
    557 451 514.2 451C471.3 451 428.7 451 385.8 451C343 451 300 451 257.2 451C214.3 
    451 171.7 451 128.8 451C86 451 43 451 21.5 451L0 451Z" fill="#f59e0b"></path>
    <path d="M0 108L21.5 113.7C43 119.3 86 130.7 128.8 139.5C171.7 148.3 214.3 
    154.7 257.2 155.5C300 156.3 343 151.7 385.8 153C428.7 154.3 471.3 161.7 514.2 
    159.3C557 157 600 145 642.8 142.3C685.7 139.7 728.3 146.3 771.2 144.8C814 143.3 
    857 133.7 878.5 128.8L900 124L900 451L878.5 451C857 451 814 451 771.2 451C728.3 
    451 685.7 451 642.8 451C600 451 557 451 514.2 451C471.3 451 428.7 451 385.8 
    451C343 451 300 451 257.2 451C214.3 451 171.7 451 128.8 451C86 451 43 451 21.5 
    451L0 451Z" fill="#ff8146"></path>
    <path d="M0 155L21.5 162.5C43 170 86 185 128.8 195.3C171.7 205.7 214.3 211.3 257.2 
    210.3C300 209.3 343 201.7 385.8 197.3C428.7 193 471.3 192 514.2 187.3C557 182.7 
    600 174.3 642.8 175C685.7 175.7 728.3 185.3 771.2 190.8C814 196.3 857 197.7 878.5 
    198.3L900 199L900 451L878.5 451C857 451 814 451 771.2 451C728.3 451 685.7 451 642.8 
    451C600 451 557 451 514.2 451C471.3 451 428.7 451 385.8 451C343 451 300 451 257.2 
    451C214.3 451 171.7 451 128.8 451C86 451 43 451 21.5 451L0 451Z" fill="#ff6a73"></path>
    <path d="M0 241L21.5 236C43 231 86 221 128.8 222.2C171.7 223.3 214.3 235.7 257.2 
    237.5C300 239.3 343 230.7 385.8 231.2C428.7 231.7 471.3 241.3 514.2 237.3C557 233.3 
    600 215.7 642.8 216.3C685.7 217 728.3 236 771.2 240.3C814 244.7 857 234.3 878.5 
    229.2L900 224L900 451L878.5 451C857 451 814 451 771.2 451C728.3 451 685.7 451 642.8 
    451C600 451 557 451 514.2 451C471.3 451 428.7 451 385.8 451C343 451 300 451 257.2 
    451C214.3 451 171.7 451 128.8 451C86 451 43 451 21.5 451L0 451Z" fill="#fe639d"></path>
    <path d="M0 298L21.5 290.7C43 283.3 86 268.7 128.8 266.7C171.7 264.7 214.3 275.3 257.2 
    282C300 288.7 343 291.3 385.8 285C428.7 278.7 471.3 263.3 514.2 255.5C557 247.7 600 
    247.3 642.8 247.5C685.7 247.7 728.3 248.3 771.2 253C814 257.7 857 266.3 878.5 270.7L900 
    275L900 451L878.5 451C857 451 814 451 771.2 451C728.3 451 685.7 451 642.8 451C600 451 
    557 451 514.2 451C471.3 451 428.7 451 385.8 451C343 451 300 451 257.2 451C214.3 451 
    171.7 451 128.8 451C86 451 43 451 21.5 451L0 451Z" fill="#da6bbf"></path>
    <path d="M0 329L21.5 324.8C43 320.7 86 312.3 128.8 308.5C171.7 304.7 214.3 305.3 
    257.2 303.5C300 301.7 343 297.3 385.8 302.7C428.7 308 471.3 323 514.2 327.2C557 
    331.3 600 324.7 642.8 324.8C685.7 325 728.3 332 771.2 333.5C814 335 857 331 878.5 
    329L900 327L900 451L878.5 451C857 451 814 451 771.2 451C728.3 451 685.7 451 642.8 
    451C600 451 557 451 514.2 451C471.3 451 428.7 451 385.8 451C343 451 300 451 257.2 
    451C214.3 451 171.7 451 128.8 451C86 451 43 451 21.5 451L0 451Z" fill="#a678d2"></path>
    <path d="M0 364L21.5 363.3C43 362.7 86 361.3 128.8 358.2C171.7 355 214.3 350 257.2 
    348.5C300 347 343 349 385.8 347.3C428.7 345.7 471.3 340.3 514.2 342.5C557 344.7 600 
    354.3 642.8 359.2C685.7 364 728.3 364 771.2 364.2C814 364.3 857 364.7 878.5 364.8L900 
    365L900 451L878.5 451C857 451 814 451 771.2 451C728.3 451 685.7 451 642.8 451C600 451 
    557 451 514.2 451C471.3 451 428.7 451 385.8 451C343 451 300 451 257.2 451C214.3 451 
    171.7 451 128.8 451C86 451 43 451 21.5 451L0 451Z" fill="#6781d5"></path>
    <path d="M0 388L21.5 392.5C43 397 86 406 128.8 409.2C171.7 412.3 214.3 409.7 257.2 
    409.8C300 410 343 413 385.8 411.3C428.7 409.7 471.3 403.3 514.2 402.2C557 401 600 
    405 642.8 404.7C685.7 404.3 728.3 399.7 771.2 395C814 390.3 857 385.7 878.5 383.3L900 
    381L900 451L878.5 451C857 451 814 451 771.2 451C728.3 451 685.7 451 642.8 451C600 451 
    557 451 514.2 451C471.3 451 428.7 451 385.8 451C343 451 300 451 257.2 451C214.3 451 
    171.7 451 128.8 451C86 451 43 451 21.5 451L0 451Z" fill="#0284c7"></path>
</svg>